<?xml version="1.0" standalone="no"?>
<!DOCTYPE svg PUBLIC "-//W3C//DTD SVG 20010904//EN"
 "http://www.w3.org/TR/2001/REC-SVG-20010904/DTD/svg10.dtd">
<svg version="1.0" xmlns="http://www.w3.org/2000/svg"
 width="903.000000pt" height="1056.000000pt" viewBox="0 0 903.000000 1056.000000"
 preserveAspectRatio="xMidYMid meet">

<g transform="translate(0.000000,1056.000000) scale(0.100000,-0.100000)"
fill="#000000" stroke="none">
<path d="M2454 8290 c-87 -88 -160 -164 -161 -168 -2 -4 88 -8 200 -10 l203
-3 149 151 c82 82 153 157 158 165 7 13 -15 15 -170 15 -98 0 -187 3 -199 6
-16 4 -52 -27 -180 -156z"/>
<path d="M7437 8117 c-66 -68 -104 -98 -135 -108 l-42 -14 193 -193 192 -193
3 197 c1 108 -2 202 -6 208 -5 6 -19 43 -30 81 -23 77 -46 115 -67 115 -8 0
-57 -42 -108 -93z"/>
<path d="M1028 6864 l-148 -145 0 -180 c0 -130 3 -179 12 -179 6 0 70 59 143
130 72 72 136 130 143 130 9 0 12 48 11 195 -1 107 -4 195 -8 195 -3 0 -72
-66 -153 -146z"/>
<path d="M7340 6278 l1 -733 37 42 c20 22 90 97 155 166 l117 124 0 420 0 419
-148 147 c-82 81 -152 147 -155 147 -4 0 -7 -330 -7 -732z"/>
<path d="M3230 6873 c-33 -12 -50 -37 -50 -73 0 -54 23 -70 101 -70 37 0 70
-5 77 -12 9 -9 12 -87 12 -288 0 -251 2 -278 18 -293 28 -25 66 -30 106 -13
l36 15 0 283 c0 208 3 287 12 296 7 7 40 12 78 12 52 0 71 4 83 18 21 23 22
81 3 108 -13 18 -29 19 -238 21 -123 1 -230 -1 -238 -4z"/>
<path d="M4165 6871 c-68 -5 -81 -9 -90 -27 -7 -13 -12 -146 -14 -351 -2 -312
-2 -330 17 -353 15 -18 28 -23 66 -23 71 0 75 8 78 157 4 152 7 156 105 156
70 0 103 20 103 63 0 47 -22 61 -105 65 -94 5 -108 19 -103 109 l3 58 141 5
c99 3 146 9 157 19 18 15 23 76 8 100 -17 26 -171 35 -366 22z"/>
<path d="M5645 6871 c-11 -5 -27 -17 -36 -27 -20 -24 -199 -619 -199 -662 0
-34 22 -54 74 -66 43 -10 72 14 90 77 9 30 22 59 29 65 20 17 181 19 201 3 9
-8 24 -41 33 -74 21 -73 41 -86 105 -65 74 25 73 28 -26 355 -113 369 -106
351 -139 379 -30 25 -90 32 -132 15z m81 -268 c9 -32 22 -80 30 -107 8 -27 14
-60 14 -73 0 -22 -3 -23 -70 -23 -45 0 -70 4 -70 11 0 26 64 249 71 249 5 0
16 -26 25 -57z"/>
<path d="M6657 6871 c-53 -4 -81 -11 -87 -21 -11 -17 -13 -488 -4 -628 6 -82
9 -91 31 -101 15 -7 99 -11 218 -11 182 0 196 1 215 20 12 12 20 33 20 55 0
22 -8 43 -20 55 -18 18 -33 20 -159 20 -157 0 -151 -4 -151 85 0 73 14 85 99
85 84 0 105 14 104 65 -1 20 -6 42 -12 48 -7 7 -45 13 -87 15 -93 5 -107 20
-102 109 l3 58 140 5 c173 7 189 14 182 76 -2 25 -7 47 -10 50 -19 20 -217 27
-380 15z"/>
<path d="M1621 6856 c-18 -6 -51 -26 -72 -44 -62 -52 -71 -101 -67 -345 3
-186 5 -205 25 -243 44 -83 106 -114 223 -114 121 1 207 50 240 137 38 103 18
153 -63 153 -52 0 -70 -17 -86 -77 -21 -77 -97 -99 -152 -44 l-29 29 0 177 c0
223 9 245 96 245 52 0 72 -15 85 -63 14 -55 35 -77 73 -77 75 0 105 35 91 107
-14 78 -60 128 -144 158 -51 18 -172 19 -220 1z"/>
<path d="M2086 6848 c-23 -32 -24 -683 -2 -714 13 -18 30 -19 220 -22 l205 -3
26 25 c30 30 32 65 6 97 -18 23 -27 24 -163 29 l-143 5 -3 70 c-4 84 6 95 87
95 31 0 66 3 78 6 26 7 43 51 32 81 -12 32 -40 43 -108 43 -81 0 -93 13 -89
99 l3 66 143 5 c136 5 145 6 163 29 23 28 24 59 3 89 -15 22 -19 22 -229 22
-210 0 -214 0 -229 -22z"/>
<path d="M2641 6851 c-13 -23 -19 -661 -7 -698 13 -42 97 -51 139 -15 14 13
17 33 17 137 0 98 3 125 15 135 32 27 59 -3 131 -145 78 -156 95 -173 146
-152 84 36 86 78 8 207 -28 46 -50 93 -50 105 0 11 18 38 40 60 56 55 74 108
66 193 -8 82 -38 132 -99 164 -38 21 -58 23 -219 26 -169 3 -177 3 -187 -17z
m315 -136 c43 -28 43 -132 1 -159 -32 -20 -121 -30 -146 -16 -19 9 -21 20 -21
93 0 53 5 88 13 96 16 17 121 7 153 -14z"/>
<path d="M3807 6852 c-15 -17 -17 -56 -17 -356 l0 -337 26 -26 c21 -21 32 -24
62 -19 73 11 72 8 72 380 0 383 2 376 -79 376 -34 0 -53 -5 -64 -18z"/>
<path d="M4614 6849 c-18 -20 -19 -41 -19 -338 -1 -174 3 -330 8 -348 15 -56
108 -69 142 -20 13 18 15 77 15 354 0 320 -1 334 -20 353 -28 28 -100 28 -126
-1z"/>
<path d="M5000 6858 c-52 -18 -106 -78 -124 -139 -22 -74 -22 -384 -1 -457 29
-98 115 -152 241 -152 150 0 253 85 254 211 0 59 -20 79 -83 79 -52 0 -69 -17
-82 -77 -10 -48 -50 -76 -100 -70 -71 10 -75 22 -75 241 0 188 1 193 23 214
23 22 76 29 112 16 19 -8 45 -55 45 -83 0 -48 101 -70 140 -31 24 24 27 97 6
138 -18 35 -62 75 -106 98 -43 22 -197 29 -250 12z"/>
<path d="M5965 6856 c-24 -17 -24 -80 0 -106 14 -15 34 -20 94 -22 l76 -3 5
-293 c5 -276 6 -294 24 -308 11 -8 27 -14 35 -14 29 0 90 21 98 33 4 6 6 100
4 208 -3 222 5 334 25 354 8 7 40 17 71 21 32 3 66 10 75 15 26 14 34 74 14
104 l-16 25 -243 0 c-191 0 -247 -3 -262 -14z"/>
<path d="M1938 5804 c-158 -35 -148 -31 -148 -66 0 -47 70 -135 113 -143 87
-17 141 52 135 171 l-3 60 -97 -22z"/>
<path d="M2534 5795 c-9 -36 2 -117 20 -154 21 -39 73 -57 122 -41 37 12 80
63 104 121 16 38 13 40 -94 69 -133 36 -144 37 -152 5z"/>
<path d="M3217 5472 c-15 -15 -33 -46 -41 -70 -15 -41 -15 -42 14 -74 17 -18
35 -47 41 -65 9 -29 13 -32 42 -26 58 11 137 61 137 86 0 15 -76 101 -123 140
l-44 36 -26 -27z"/>
<path d="M1252 5428 c-112 -106 -108 -98 -65 -136 20 -18 61 -40 91 -48 48
-14 56 -14 86 0 66 31 62 148 -7 224 -11 12 -25 22 -30 22 -5 0 -39 -28 -75
-62z"/>
<path d="M854 4746 l-31 -124 30 -6 c121 -24 207 26 207 120 0 45 -109 135
-162 134 -8 0 -25 -47 -44 -124z"/>
<path d="M3603 4840 c-63 -36 -85 -67 -85 -116 0 -46 29 -85 73 -101 34 -12
141 -18 151 -8 6 7 -14 111 -37 193 -21 73 -27 75 -102 32z"/>
<path d="M7465 4029 c-99 -82 -183 -149 -187 -149 -5 0 -8 -16 -8 -35 0 -53
-22 -97 -77 -152 -47 -48 -58 -69 -77 -163 -3 -14 -18 -46 -34 -71 -32 -50
-96 -89 -148 -89 -56 0 -104 -21 -160 -70 -56 -49 -103 -70 -155 -70 -14 0
-36 -11 -48 -24 l-22 -24 76 -277 c41 -153 78 -282 81 -286 12 -21 35 -3 133
101 71 76 109 110 125 110 12 0 76 -18 141 -40 122 -41 145 -43 145 -14 0 9
-36 148 -80 309 -44 161 -80 295 -80 299 0 3 131 -39 291 -94 161 -55 301
-100 311 -100 17 0 19 5 16 38 -3 20 -17 83 -32 139 -23 88 -25 105 -14 127 7
13 61 63 121 111 59 48 107 90 107 94 -1 19 -33 34 -212 95 l-198 68 48 53
c33 36 60 80 86 143 21 51 36 98 34 105 -2 9 -71 -42 -183 -134z"/>
<path d="M836 4058 c8 -35 23 -94 35 -131 23 -78 25 -79 116 -21 64 41 84 88
60 145 -20 49 -66 69 -155 69 l-70 0 14 -62z"/>
<path d="M3575 4105 c-40 -20 -56 -48 -57 -96 -1 -55 19 -79 98 -119 77 -40
92 -54 131 -127 l28 -53 835 0 835 1 190 158 c104 88 191 164 193 170 3 8
-288 11 -1043 11 l-1048 0 6 35 6 35 -72 0 c-43 0 -84 -6 -102 -15z"/>
<path d="M1255 3483 c-59 -24 -95 -52 -95 -73 0 -11 -45 -144 -101 -297 -56
-153 -136 -375 -179 -493 -43 -118 -88 -237 -100 -265 -47 -107 -180 -481
-180 -505 0 -14 8 -37 17 -50 34 -49 835 -940 854 -951 30 -16 70 -7 90 21 10
14 66 187 124 385 58 198 123 419 145 490 22 72 48 166 59 210 11 44 34 125
51 180 17 55 47 153 65 218 19 64 41 130 50 147 8 16 15 40 15 53 0 13 7 46
16 73 33 104 34 117 14 139 -48 52 -62 101 -68 231 -6 145 -14 162 -79 171
-59 8 -80 -9 -137 -111 -71 -126 -139 -176 -238 -176 -101 0 -209 73 -244 166
-27 71 -16 140 41 248 55 103 55 124 4 175 -35 35 -63 38 -124 14z"/>
<path d="M3295 3470 c-22 -9 -70 -58 -102 -104 l-20 -29 20 -36 c11 -20 30
-46 41 -59 30 -34 30 -160 -1 -218 -45 -84 -148 -148 -238 -147 -95 1 -176 59
-238 172 -23 42 -51 86 -64 99 -38 38 -125 24 -143 -22 -5 -14 -10 -71 -10
-128 -2 -119 -10 -154 -57 -223 l-33 -51 18 -69 c29 -107 61 -222 87 -305 13
-41 38 -122 56 -180 l32 -105 9 50 c5 28 11 63 13 79 23 152 164 345 302 415
35 17 71 33 80 35 10 1 25 6 33 9 112 47 334 27 449 -40 25 -14 85 -62 133
-106 l88 -79 -36 98 c-20 55 -85 234 -144 399 -59 165 -120 333 -135 374 -15
41 -24 83 -21 96 4 14 -1 28 -12 37 -16 15 -77 49 -84 47 -2 0 -12 -4 -23 -9z"/>
</g>
</svg>
