<?xml version="1.0" standalone="no"?>
<!DOCTYPE svg PUBLIC "-//W3C//DTD SVG 20010904//EN"
 "http://www.w3.org/TR/2001/REC-SVG-20010904/DTD/svg10.dtd">
<svg version="1.0" xmlns="http://www.w3.org/2000/svg"
 width="978.000000pt" height="977.000000pt" viewBox="0 0 978.000000 977.000000"
 preserveAspectRatio="xMidYMid meet">

<g transform="translate(0.000000,977.000000) scale(0.100000,-0.100000)"
fill="#000000" stroke="none">
<path d="M5726 8954 c-60 -22 -104 -60 -134 -117 l-27 -52 -3 -1012 -2 -1013
-816 0 c-710 0 -819 -2 -851 -15 -50 -21 -71 -41 -99 -97 l-24 -47 0 -696 c0
-457 -3 -695 -10 -695 -5 0 -10 -7 -10 -15 0 -8 -11 -17 -25 -21 -53 -13 -108
-133 -83 -179 6 -9 8 -25 5 -36 -3 -10 -1 -19 3 -19 8 0 30 -53 30 -71 0 -5
-399 -10 -887 -11 -867 -3 -889 -3 -922 -23 -59 -35 -71 -71 -71 -223 0 -159
11 -192 74 -224 22 -11 44 -26 48 -32 4 -6 8 -87 8 -181 l0 -169 70 69 70 69
0 96 c0 52 5 102 10 110 8 13 239 15 1980 15 1940 0 1972 0 1986 -19 12 -16
14 -97 14 -467 0 -394 -2 -449 -16 -463 -13 -14 -62 -16 -377 -16 l-362 -1
-37 -64 -36 -65 437 0 c421 0 439 1 463 20 58 45 58 44 58 574 0 372 3 488 13
496 6 6 28 19 47 28 62 31 75 68 75 222 0 147 -8 177 -56 213 -39 28 -96 36
-273 37 -147 0 -158 1 -151 17 26 63 45 126 45 149 0 47 -31 96 -82 127 l-48
30 0 521 0 521 1357 -3 c1219 -2 1362 -1 1400 13 58 22 90 50 129 111 l34 53
0 1191 0 1191 -21 42 c-28 55 -64 94 -114 120 l-40 22 -1370 2 c-1171 1 -1376
0 -1409 -13z m2775 -127 c20 -14 41 -40 53 -69 36 -86 185 -78 -1431 -76
l-1438 3 -3 27 c-4 38 34 104 72 122 27 14 190 16 1372 16 l1341 0 34 -23z
m-2541 -300 c-62 -93 -61 -165 6 -258 l33 -47 -47 -12 c-111 -27 -165 -101
-167 -229 -1 -68 -3 -75 -25 -83 -13 -5 -36 -6 -52 -3 l-27 6 -3 315 c-2 174
0 324 4 335 7 18 18 19 157 19 l150 0 -29 -43z m598 31 c16 -16 17 -644 2
-653 -15 -10 -76 -14 -87 -6 -6 3 -13 42 -15 87 -9 133 -58 197 -170 224 l-46
12 33 44 c65 85 69 162 15 248 -17 26 -30 49 -30 51 0 3 64 5 143 5 98 0 147
-4 155 -12z m422 8 c0 -2 -11 -24 -25 -47 -55 -97 -53 -155 9 -248 l34 -50
-48 -11 c-49 -12 -120 -63 -142 -103 -7 -12 -15 -60 -18 -107 -5 -78 -7 -85
-32 -99 -21 -12 -31 -13 -52 -3 l-26 12 0 324 c0 250 3 325 13 329 14 6 287 9
287 3z m578 -8 c18 -18 17 -642 0 -655 -11 -8 -46 -10 -88 -4 -5 0 -10 28 -10
62 0 137 -48 213 -152 244 -32 9 -58 19 -58 22 0 3 12 19 27 37 63 75 69 143
20 240 l-34 66 142 0 c96 0 145 -4 153 -12z m422 8 c0 -2 -13 -30 -30 -61 -45
-85 -42 -143 10 -223 l39 -62 -27 -6 c-122 -26 -182 -102 -182 -231 0 -76 -38
-111 -91 -83 -18 10 -19 25 -19 335 0 249 3 324 13 328 14 6 287 9 287 3z
m588 -333 c1 -220 -1 -333 -8 -334 -42 -5 -77 -4 -87 4 -8 6 -13 33 -13 71 0
128 -48 200 -153 231 -39 11 -55 20 -50 28 5 7 21 32 37 55 52 76 47 157 -14
250 l-22 33 153 -3 154 -3 3 -332z m-2408 252 c39 -20 63 -68 55 -106 -7 -31
-44 -66 -81 -75 -33 -8 -84 22 -100 62 -20 47 1 99 48 119 42 18 43 18 78 0z
m1030 -21 c47 -46 26 -131 -39 -155 -31 -12 -86 6 -106 34 -20 29 -19 87 3
114 37 48 98 51 142 7z m1003 -5 c45 -48 31 -115 -30 -144 -111 -53 -189 114
-79 169 40 21 74 13 109 -25z m-1886 -375 c34 -21 57 -136 35 -172 -7 -9 -58
-12 -223 -10 l-214 3 -3 59 c-5 104 19 133 118 139 98 7 264 -4 287 -19z
m1000 1 c37 -26 57 -151 29 -174 -9 -8 -80 -11 -222 -9 l-209 3 -3 59 c-4 68
10 109 41 124 12 6 92 11 182 11 129 1 165 -2 182 -14z m997 -6 c50 -39 71
-113 46 -160 -10 -18 -23 -19 -218 -19 -114 0 -213 4 -221 9 -10 6 -12 26 -9
76 4 59 8 71 32 91 26 23 33 24 185 24 145 0 160 -2 185 -21z m-2353 -352
c-53 -95 -49 -158 14 -241 36 -47 35 -56 -2 -56 -35 0 -96 -34 -131 -74 -33
-38 -55 -115 -51 -183 4 -53 -4 -61 -54 -60 l-42 2 -5 315 c-3 173 -3 323 -1
332 4 23 12 23 167 20 l134 -3 -29 -52z m925 53 l104 0 -30 -53 c-41 -74 -41
-142 0 -214 16 -28 34 -54 40 -58 18 -11 10 -25 -15 -25 -34 0 -94 -26 -123
-53 -43 -40 -62 -91 -62 -164 0 -37 -4 -73 -8 -80 -11 -18 -58 -26 -81 -13
-21 11 -21 16 -21 330 0 293 1 320 18 330 9 5 30 8 46 5 16 -3 75 -5 132 -5z
m678 -6 c14 -13 16 -57 16 -329 0 -289 -1 -315 -17 -323 -10 -5 -29 -8 -43 -7
-14 2 -30 4 -36 4 -7 1 -13 32 -16 84 -6 112 -32 162 -107 200 -30 15 -68 27
-84 27 l-30 0 27 33 c40 48 66 107 66 152 0 42 -38 136 -61 151 -9 6 34 11
111 14 69 3 133 7 142 8 9 1 24 -5 32 -14z m424 1 c2 -2 -9 -22 -25 -46 -24
-36 -28 -53 -28 -109 0 -60 4 -72 38 -123 20 -31 37 -59 37 -62 0 -3 -11 -5
-25 -5 -34 0 -94 -26 -123 -53 -39 -36 -55 -78 -61 -162 -5 -73 -8 -81 -33
-94 -21 -12 -31 -13 -52 -3 l-26 12 0 319 c0 274 2 321 15 328 13 8 275 5 283
-2z m-1410 -319 c1 -202 -1 -323 -8 -331 -8 -9 -53 -12 -91 -6 -4 1 -8 38 -11
84 -7 132 -64 205 -176 225 l-41 7 39 58 c22 32 42 74 46 93 8 43 -9 105 -42
157 l-25 38 153 -3 153 -3 3 -319z m2002 -6 c0 -181 -3 -330 -7 -331 -34 -5
-84 -5 -91 0 -5 3 -11 45 -14 92 -6 127 -48 184 -154 211 -27 7 -51 13 -53 15
-2 1 8 18 23 38 65 84 72 159 26 244 -17 30 -30 56 -30 58 0 1 68 3 150 3
l150 0 0 -330z m-2399 250 c28 -16 51 -67 44 -99 -13 -58 -85 -95 -134 -69
-14 7 -33 28 -44 46 -16 27 -17 37 -8 65 6 17 22 40 34 49 25 20 78 23 108 8z
m1012 -10 c54 -42 41 -134 -22 -160 -83 -34 -158 50 -120 134 22 47 97 61 142
26z m1008 -9 c37 -38 39 -87 5 -124 -63 -68 -166 -25 -166 68 0 40 50 85 95
85 27 0 44 -8 66 -29z m-1898 -372 c34 -15 49 -45 54 -108 4 -43 2 -60 -10
-69 -11 -9 -68 -12 -223 -10 l-209 3 -3 68 c-3 63 -1 69 27 97 l29 30 156 0
c89 0 165 -5 179 -11z m1002 1 c15 -6 32 -24 40 -45 19 -44 19 -119 1 -134 -9
-8 -77 -11 -222 -9 l-209 3 -3 68 c-3 63 -1 69 27 97 l29 30 156 0 c85 0 166
-4 181 -10z m1021 -14 c24 -20 28 -33 32 -88 3 -48 0 -67 -11 -76 -11 -9 -69
-12 -223 -10 l-209 3 -3 68 c-3 63 -1 69 27 97 l29 30 166 0 c159 0 166 -1
192 -24z m-1443 -296 l107 0 -30 -56 c-50 -95 -40 -183 33 -261 16 -18 17 -23
6 -27 -8 -2 -32 -10 -54 -16 -97 -30 -144 -99 -145 -212 0 -47 -5 -71 -16 -82
-18 -19 -65 -21 -82 -4 -9 9 -12 96 -12 330 l0 319 23 9 c12 5 31 7 42 5 11
-3 68 -5 128 -5z m1104 -4 c1 -1 -11 -28 -27 -60 -40 -79 -40 -133 0 -203 16
-28 34 -54 40 -58 21 -13 9 -23 -34 -29 -101 -15 -166 -101 -166 -218 0 -73
-14 -98 -55 -98 -58 0 -55 -16 -55 336 0 269 2 324 14 331 12 6 276 6 283 -1z
m-2013 -23 c-69 -106 -69 -188 1 -270 40 -47 42 -53 18 -53 -37 0 -93 -22
-123 -47 -47 -39 -71 -96 -77 -180 -9 -116 -23 -96 -23 34 0 136 -10 184 -51
235 -29 37 -29 38 -29 172 l0 136 151 0 151 0 -18 -27z m604 -288 c1 -170 0
-320 -3 -333 -5 -21 -11 -23 -53 -20 l-47 3 -6 85 c-6 96 -22 133 -73 178 -32
28 -89 52 -123 52 -18 0 -16 14 7 43 31 39 60 108 60 143 0 18 -15 61 -33 98
l-34 67 151 -3 151 -3 3 -310z m1000 0 c1 -170 0 -320 -3 -333 -5 -21 -11 -23
-53 -20 l-47 3 -6 86 c-8 114 -36 166 -111 203 -28 14 -62 26 -75 26 -13 0
-23 2 -23 5 0 3 16 28 35 56 55 81 58 141 10 235 -14 27 -25 50 -25 52 0 1 66
1 148 0 l147 -3 3 -310z m1000 45 c3 -302 0 -327 -56 -365 -20 -14 -40 -25
-43 -25 -4 0 -7 30 -8 66 -2 148 -48 206 -199 250 -10 3 -6 13 11 36 67 89 74
152 27 244 -16 32 -30 60 -30 62 0 1 66 1 148 0 l147 -3 3 -265z m-2398 185
c41 -21 56 -73 35 -118 -29 -62 -95 -74 -147 -28 -25 22 -32 36 -32 66 0 30 7
44 32 66 36 32 69 36 112 14z m999 0 c56 -29 64 -103 16 -151 -55 -55 -155 -9
-155 71 0 27 8 44 29 66 33 32 67 37 110 14z m1022 -14 c21 -22 29 -39 29 -66
0 -27 -8 -44 -29 -66 -22 -21 -39 -29 -66 -29 -27 0 -44 8 -66 29 -21 22 -29
39 -29 66 0 27 8 44 29 66 22 21 39 29 66 29 27 0 44 -8 66 -29z m-2612 -282
c21 -7 33 -20 38 -37 4 -15 7 -327 7 -693 1 -642 0 -668 -18 -688 l-19 -21
-816 0 c-449 0 -821 4 -828 8 -31 19 -33 70 -33 718 0 627 2 676 27 704 6 6
555 15 1149 18 315 1 471 -1 493 -9z m715 -90 c14 -7 32 -26 41 -44 18 -39 20
-126 3 -143 -17 -17 -424 -17 -434 0 -12 20 -4 132 12 156 8 13 25 27 37 32
33 13 311 12 341 -1z m1996 0 c22 -8 37 -22 46 -45 17 -42 18 -130 2 -140 -15
-10 -382 -18 -415 -9 -21 5 -23 11 -23 65 0 73 16 109 55 126 38 17 288 19
335 3z m-971 -25 c25 -32 39 -128 21 -149 -11 -13 -45 -15 -224 -13 l-211 3
-3 49 c-4 62 3 91 28 116 18 18 34 20 194 20 l175 0 20 -26z m-1573 -1479 c15
-37 -38 -115 -99 -148 l-42 -22 -834 3 c-789 2 -836 3 -876 21 -67 30 -129
130 -94 152 8 5 442 9 977 9 852 0 963 -2 968 -15z m425 -315 c16 -9 19 -22
19 -78 0 -91 -7 -109 -42 -121 -22 -8 -668 -11 -2109 -11 l-2079 0 -16 25
c-24 36 -11 159 19 180 19 13 279 15 2105 15 1417 0 2090 -3 2103 -10z"/>
<path d="M4522 5954 c-16 -11 -22 -25 -22 -54 0 -67 11 -70 268 -70 l223 0 24
25 c14 13 25 34 25 45 0 12 -11 32 -25 45 l-24 25 -223 0 c-186 0 -227 -3
-246 -16z"/>
<path d="M7197 6062 c-15 -17 -17 -52 -17 -348 0 -243 -3 -333 -12 -342 -15
-15 -450 -17 -478 -2 -10 5 -28 26 -40 45 -32 51 -95 85 -159 85 -146 0 -242
-145 -182 -275 64 -139 255 -155 342 -29 16 24 31 45 32 46 1 1 135 5 297 8
l294 5 13 25 c18 36 18 734 0 770 -16 32 -66 39 -90 12z m-649 -708 c27 -31
28 -63 2 -97 -59 -75 -172 -7 -134 81 23 57 88 64 132 16z"/>
<path d="M3000 3369 c-7 -17 -24 -46 -36 -65 -23 -33 -23 -34 -4 -34 11 0 292
0 625 0 333 0 614 0 624 0 18 0 16 6 -15 57 -19 31 -34 60 -34 65 0 4 -258 8
-574 8 l-574 0 -12 -31z"/>
<path d="M2329 3050 c-112 -11 -224 -38 -314 -75 -90 -37 -155 -73 -155 -85 0
-5 42 -44 93 -88 121 -104 165 -154 234 -259 51 -78 133 -247 133 -273 0 -6
-140 -10 -387 -10 -431 0 -480 -6 -590 -62 -192 -98 -320 -253 -375 -455 -19
-72 -21 -107 -23 -430 l-2 -353 87 0 86 0 -3 250 c-4 300 7 463 37 544 53 140
172 256 316 307 l69 24 716 3 c798 3 802 3 935 -63 88 -43 174 -131 216 -221
51 -110 58 -167 58 -521 l0 -323 85 0 85 0 0 328 c0 370 6 419 66 532 45 85
133 171 218 211 126 60 130 60 926 57 l725 -3 65 -23 c123 -44 223 -127 278
-231 56 -103 60 -143 64 -523 l3 -348 87 0 88 0 -1 302 c0 226 4 324 15 386
36 203 158 350 343 414 l68 23 745 0 c741 0 745 0 815 -22 201 -63 317 -208
356 -443 6 -37 11 -192 10 -362 l-1 -298 86 0 86 0 -5 358 c-4 402 -7 421 -80
572 -78 161 -237 290 -417 339 l-62 17 -32 85 c-101 268 -304 487 -567 613
-264 127 -576 146 -859 54 -74 -24 -220 -94 -220 -106 0 -9 50 -56 140 -132
35 -30 77 -68 92 -85 49 -52 135 -186 177 -275 65 -139 74 -126 -86 -133 -208
-8 -333 -39 -453 -112 -62 -38 -158 -129 -202 -192 l-29 -43 -49 59 c-97 117
-234 217 -335 246 -99 28 -289 36 -830 36 -818 -1 -875 -5 -1010 -73 -73 -37
-132 -83 -206 -161 l-56 -59 -6 78 c-18 228 -164 527 -341 697 -228 219 -585
340 -907 307z"/>
</g>
</svg>
