<?xml version="1.0" standalone="no"?>
<!DOCTYPE svg PUBLIC "-//W3C//DTD SVG 20010904//EN"
 "http://www.w3.org/TR/2001/REC-SVG-20010904/DTD/svg10.dtd">
<svg version="1.0" xmlns="http://www.w3.org/2000/svg"
 width="997.000000pt" height="942.000000pt" viewBox="0 0 997.000000 942.000000"
 preserveAspectRatio="xMidYMid meet">

<g transform="translate(0.000000,942.000000) scale(0.100000,-0.100000)"
fill="#000000" stroke="none">
<path d="M4582 8693 l3 -538 172 -3 c94 -1 174 1 176 5 6 11 11 462 9 796 l-2
277 -180 0 -180 0 2 -537z"/>
<path d="M5312 8693 l3 -538 173 -3 c171 -2 172 -2 180 20 7 22 9 238 4 791
l-2 267 -180 0 -180 0 2 -537z"/>
<path d="M6040 8703 c0 -291 4 -534 8 -541 7 -9 49 -12 178 -10 l169 3 3 538
2 537 -180 0 -180 0 0 -527z"/>
<path d="M6770 8706 c0 -288 3 -531 6 -540 5 -14 30 -16 174 -16 93 0 171 3
173 8 3 4 8 247 12 540 l6 532 -185 0 -186 0 0 -524z"/>
<path d="M9207 7662 c-174 -174 -317 -322 -317 -328 0 -13 315 -324 328 -324
21 0 358 347 389 400 74 126 84 299 24 425 -30 64 -85 145 -99 145 -4 0 -150
-143 -325 -318z"/>
<path d="M7723 6171 c-486 -487 -883 -886 -883 -886 0 0 77 -74 171 -164 l170
-164 879 884 878 884 -161 166 c-89 91 -164 166 -167 166 -3 0 -402 -399 -887
-886z"/>
<path d="M1016 3265 c-3 -9 -6 -612 -6 -1340 0 -1203 1 -1324 16 -1336 25 -20
900 -14 965 7 61 19 118 70 154 135 40 74 41 102 35 1299 l-5 1025 -26 55
c-31 66 -78 115 -139 144 -44 20 -60 21 -516 24 -427 2 -472 1 -478 -13z"/>
</g>
</svg>
