<?xml version="1.0" standalone="no"?>
<!DOCTYPE svg PUBLIC "-//W3C//DTD SVG 20010904//EN"
 "http://www.w3.org/TR/2001/REC-SVG-20010904/DTD/svg10.dtd">
<svg version="1.0" xmlns="http://www.w3.org/2000/svg"
 width="992.000000pt" height="896.000000pt" viewBox="0 0 992.000000 896.000000"
 preserveAspectRatio="xMidYMid meet">

<g transform="translate(0.000000,896.000000) scale(0.100000,-0.100000)"
fill="#000000" stroke="none">
<path d="M4349 6830 c-274 -43 -489 -290 -491 -566 0 -45 5 -106 12 -135 10
-42 54 -149 87 -211 2 -3 -25 -16 -59 -27 -120 -40 -183 -86 -338 -245 -257
-263 -445 -388 -738 -490 -139 -48 -191 -77 -251 -138 l-51 -52 -148 146 c-87
87 -165 155 -192 168 -66 34 -151 37 -225 10 -56 -21 -83 -46 -429 -389 -222
-220 -384 -390 -407 -425 -38 -57 -39 -62 -39 -146 0 -85 1 -89 39 -146 23
-34 246 -265 528 -546 547 -546 544 -543 673 -542 105 0 140 23 343 223 107
106 181 171 186 165 5 -5 -22 -88 -66 -204 -90 -234 -94 -263 -42 -316 31 -30
43 -36 83 -36 63 -1 92 17 121 76 19 41 215 547 382 991 45 117 -18 106 567
103 503 -3 512 -3 558 -25 64 -30 134 -97 166 -158 20 -39 27 -69 30 -135 4
-85 3 -89 -138 -595 -78 -281 -147 -526 -152 -545 -6 -19 -25 -49 -43 -67 -46
-46 -94 -46 -141 1 -29 29 -34 41 -34 81 0 25 34 255 75 511 41 256 75 478 75
495 0 45 -27 89 -64 104 -23 10 -86 15 -207 16 -194 2 -217 -3 -262 -63 -14
-18 -93 -170 -177 -338 -416 -833 -835 -1648 -861 -1675 -26 -27 -36 -30 -90
-30 -57 0 -62 2 -95 37 -47 51 -45 88 11 237 57 153 58 178 4 232 -39 39 -44
41 -90 37 -28 -3 -58 -13 -71 -24 -25 -22 -63 -103 -108 -229 -61 -170 -40
-308 61 -420 153 -167 419 -170 572 -6 44 47 76 109 762 1464 l267 528 37 -3
c20 -2 35 -8 34 -14 -1 -7 -32 -200 -68 -430 -73 -460 -74 -484 -28 -586 28
-64 96 -134 162 -167 22 -12 41 -27 41 -33 0 -6 -314 -322 -697 -702 -383
-380 -709 -711 -725 -735 -31 -50 -35 -79 -14 -119 8 -15 109 -121 224 -235
l209 -208 51 3 50 3 377 369 c207 203 383 382 391 397 33 64 5 141 -62 170
-81 36 -77 39 -425 -308 -193 -192 -323 -314 -332 -311 -9 1 -50 34 -91 71
-97 87 -100 107 -23 175 28 26 549 543 1157 1150 608 606 1110 1102 1116 1102
6 0 115 -103 242 -229 251 -248 271 -263 340 -241 55 18 837 799 850 850 12
48 0 85 -49 142 -23 27 -39 51 -36 54 11 11 643 132 651 124 9 -9 -111 -628
-126 -645 -5 -5 -29 11 -61 42 -68 67 -115 88 -165 72 -29 -9 -156 -130 -562
-535 -289 -288 -532 -524 -539 -524 -8 0 -121 105 -250 234 -263 261 -272 267
-347 228 -55 -29 -791 -769 -799 -805 -23 -92 57 -176 151 -160 21 4 116 93
360 334 181 181 334 329 339 329 4 0 114 -105 244 -234 248 -246 262 -256 334
-241 25 6 140 115 557 531 336 335 532 524 545 524 11 0 60 -40 116 -96 83
-83 101 -96 137 -101 52 -7 96 11 123 48 15 21 47 165 125 556 57 290 109 536
114 545 15 26 12 95 -5 128 -22 43 -63 70 -104 70 -43 0 -1123 -215 -1164
-231 -43 -18 -77 -65 -77 -107 0 -49 24 -85 110 -171 58 -58 69 -74 61 -88 -5
-10 -135 -143 -288 -296 l-279 -278 -239 240 c-205 205 -245 240 -277 246 -21
4 -50 4 -65 0 -16 -4 -135 -113 -311 -286 -156 -154 -286 -279 -288 -277 -2 3
33 137 77 299 44 162 91 335 105 384 50 184 40 327 -32 474 -45 91 -140 189
-238 245 -37 22 -70 46 -73 53 -3 8 13 64 35 126 22 62 55 155 73 207 18 52
39 103 47 113 13 14 33 17 124 17 371 0 684 105 981 328 158 119 212 211 205
352 -6 137 -82 250 -207 308 -46 22 -70 26 -136 26 -103 -1 -159 -22 -273
-107 -117 -87 -184 -123 -262 -141 -123 -29 -246 -17 -355 35 -59 28 -135 83
-135 98 0 5 28 22 63 39 204 102 327 298 327 524 0 155 -51 287 -155 396 -134
143 -328 211 -516 182z m233 -278 c65 -32 125 -94 156 -160 37 -78 38 -203 4
-273 -34 -68 -83 -121 -143 -154 -50 -28 -61 -30 -159 -30 -98 0 -109 2 -159
30 -60 33 -110 87 -143 154 -34 67 -33 207 1 271 47 89 107 144 188 175 60 23
197 16 255 -13z m-301 -925 c45 -22 109 -68 162 -115 231 -207 499 -275 768
-196 85 25 211 91 286 150 37 30 87 64 111 75 40 19 44 19 77 3 35 -16 65 -57
65 -89 0 -57 -133 -169 -311 -260 -248 -127 -450 -164 -796 -145 l-92 5 -31
-31 c-25 -25 -49 -82 -126 -300 -52 -148 -102 -288 -110 -312 -11 -28 -25 -47
-41 -53 -13 -5 -189 -9 -393 -9 -317 0 -371 2 -384 15 -8 9 -13 21 -11 28 2 7
59 221 126 477 66 255 128 485 136 510 43 131 133 225 256 271 41 15 72 19
143 16 83 -3 99 -7 165 -40z m-911 -569 c-44 -184 -52 -191 -250 -273 -247
-103 -316 -114 -360 -58 -28 36 -27 94 3 123 12 12 81 43 152 69 137 50 336
147 420 205 28 18 52 32 53 31 2 -2 -6 -45 -18 -97z m-813 -480 c260 -260 476
-481 479 -490 3 -9 -1 -27 -8 -40 -16 -27 -240 -248 -253 -248 -16 0 -265 254
-265 271 0 9 14 34 31 55 41 51 51 80 43 118 -9 43 -323 361 -371 377 -49 16
-95 4 -139 -36 -21 -19 -43 -35 -48 -35 -17 0 -236 223 -236 240 0 8 55 70
122 137 91 92 129 123 148 123 19 0 127 -102 497 -472z m-828 -99 l123 -121
-9 -47 c-26 -143 5 -240 107 -334 90 -84 207 -118 297 -87 20 8 38 8 57 0 27
-10 286 -261 286 -277 0 -5 -58 -66 -129 -137 -110 -109 -132 -128 -152 -123
-28 7 -979 956 -979 976 0 17 249 271 265 271 7 0 67 -54 134 -121z m1496 39
c-14 -70 -48 -188 -54 -188 -14 0 -145 143 -136 147 34 15 181 71 188 72 5 1
6 -14 2 -31z m-1003 -245 c26 -26 48 -53 48 -59 0 -18 -78 -84 -99 -84 -25 0
-70 37 -82 68 -7 18 -5 31 7 50 16 24 64 71 74 72 2 0 26 -21 52 -47z"/>
<path d="M7972 6407 c-24 -18 -60 -59 -81 -92 -20 -33 -54 -74 -74 -92 -33
-29 -54 -37 -123 -45 -21 -3 -19 -8 28 -118 28 -63 58 -137 68 -165 25 -74 42
-67 114 47 34 53 64 99 67 102 3 4 50 -3 105 -15 54 -11 108 -22 119 -22 27
-3 30 26 7 76 -10 23 -49 113 -87 200 -48 110 -73 157 -84 157 -9 0 -35 -15
-59 -33z"/>
<path d="M6900 6213 c-51 -115 -99 -215 -106 -224 -8 -8 -14 -25 -14 -37 0
-27 12 -27 145 -2 55 10 103 16 107 14 12 -8 98 -154 98 -167 0 -7 5 -18 12
-25 29 -29 44 -11 103 116 32 70 78 169 102 221 l44 94 -33 -9 c-53 -13 -122
-9 -154 10 -16 10 -56 56 -89 103 -49 70 -94 113 -118 113 -2 0 -45 -93 -97
-207z"/>
<path d="M2579 2675 c-15 -8 -34 -31 -44 -51 -24 -51 -14 -99 29 -143 31 -31
40 -34 85 -33 63 1 95 22 116 74 20 51 13 89 -27 134 -27 31 -35 34 -82 34
-28 -1 -63 -7 -77 -15z"/>
<path d="M4167 1601 c-58 -38 -76 -102 -47 -170 13 -32 78 -71 119 -71 31 0
76 25 100 56 41 53 15 165 -45 190 -46 19 -94 17 -127 -5z"/>
</g>
</svg>
