<?xml version="1.0" standalone="no"?>
<!DOCTYPE svg PUBLIC "-//W3C//DTD SVG 20010904//EN"
 "http://www.w3.org/TR/2001/REC-SVG-20010904/DTD/svg10.dtd">
<svg version="1.0" xmlns="http://www.w3.org/2000/svg"
 width="1053.000000pt" height="991.000000pt" viewBox="0 0 1053.000000 991.000000"
 preserveAspectRatio="xMidYMid meet">

<g transform="translate(0.000000,991.000000) scale(0.100000,-0.100000)"
fill="#000000" stroke="none">
<path d="M7120 9745 c-78 -18 -166 -60 -236 -113 -27 -21 -77 -51 -110 -66
-71 -33 -136 -93 -172 -161 -24 -44 -27 -61 -27 -145 0 -89 2 -100 38 -174 20
-43 37 -79 37 -81 0 -1 -21 -8 -47 -14 -136 -35 -174 -212 -62 -292 19 -13 53
-24 87 -28 l56 -6 17 -88 c27 -138 64 -206 169 -308 96 -93 111 -126 68 -146
-13 -6 -45 -28 -73 -49 l-50 -38 -280 -46 c-229 -38 -291 -52 -339 -76 -107
-52 -180 -146 -205 -262 -13 -63 -16 -1229 -2 -1250 4 -7 26 -17 47 -22 22 -5
741 -7 1646 -5 1753 4 1649 0 1676 60 15 33 17 1150 2 1189 -20 53 -48 61
-239 64 -97 2 -179 8 -182 13 -3 5 -6 53 -7 105 -1 108 -15 144 -72 181 -32
22 -40 23 -329 25 -366 2 -360 2 -393 -22 -35 -26 -36 -26 -279 14 l-206 34
-64 47 c-82 60 -93 90 -47 125 140 107 237 270 238 397 0 54 8 63 56 63 96 0
165 66 166 160 0 85 -55 150 -140 164 l-40 6 30 87 c27 78 30 96 25 173 -8
142 -64 251 -169 328 -56 41 -232 126 -308 149 -70 21 -205 25 -280 8z m225
-111 c101 -26 262 -103 315 -151 28 -25 61 -68 77 -101 24 -49 28 -69 28 -142
0 -53 -5 -94 -14 -109 -13 -24 -14 -23 -52 49 -37 71 -52 90 -74 90 -6 0 -55
-29 -109 -65 -122 -81 -178 -99 -300 -93 -103 4 -172 30 -261 97 -108 81 -121
79 -175 -30 -22 -43 -43 -79 -46 -79 -3 0 -16 24 -29 53 -34 71 -33 137 1 206
76 151 275 170 397 37 l37 -41 37 20 c21 11 39 28 41 39 5 25 -89 115 -150
144 -27 12 -48 24 -48 27 0 9 60 35 112 49 70 19 141 19 213 0z m-403 -548
c84 -53 162 -78 263 -83 51 -3 114 0 146 6 60 13 166 59 206 91 14 11 32 20
40 20 8 0 28 -30 46 -67 l32 -68 0 -200 c0 -168 -3 -208 -18 -253 -43 -122
-144 -226 -265 -273 -82 -32 -224 -32 -304 -1 -120 48 -213 141 -263 262 -16
37 -20 78 -23 240 -3 178 -2 201 17 254 23 65 46 106 61 106 5 0 33 -15 62
-34z m-257 -208 c12 -31 11 -80 0 -92 -17 -17 -69 -9 -91 15 -21 24 -11 67 19
79 32 13 67 12 72 -2z m1179 1 c49 -23 35 -88 -22 -100 -52 -11 -64 14 -53
104 1 11 47 9 75 -4z m-624 -754 c30 0 78 4 106 8 l51 8 6 -42 c3 -24 2 -50
-3 -59 -10 -19 -146 -153 -161 -158 -13 -5 -159 145 -161 165 -1 10 0 35 0 56
l2 39 53 -9 c28 -4 77 -8 107 -8z m-219 -188 c39 -30 43 -56 19 -134 l-23 -73
35 -52 c47 -69 58 -92 58 -118 0 -12 -21 -74 -46 -138 l-47 -116 43 -180 c23
-100 60 -257 81 -351 46 -198 55 -222 80 -230 30 -10 56 3 67 33 6 15 47 185
92 378 l81 350 -50 127 c-28 70 -51 132 -51 138 0 6 19 39 43 73 24 34 46 70
50 80 4 11 -2 47 -15 87 -19 61 -20 71 -7 95 26 49 37 49 320 4 145 -23 274
-46 287 -51 20 -8 22 -15 22 -89 l0 -80 -171 0 c-139 0 -178 -3 -206 -17 -64
-30 -63 -22 -63 -633 l0 -550 -490 0 -490 0 -2 458 -3 457 -50 0 -50 0 -5
-455 -5 -455 -218 -3 -218 -2 3 572 3 573 28 57 c30 60 80 108 141 133 20 9
137 31 259 50 122 19 269 44 327 54 127 23 150 24 171 8z m1787 -49 c8 -8 12
-46 12 -105 l0 -93 -170 0 -169 0 -28 56 c-16 33 -49 76 -81 105 l-54 49 239
0 c173 0 242 -3 251 -12z m-566 -74 c32 -16 92 -75 108 -104 10 -19 8 -20 -85
-20 l-95 0 0 76 c0 83 1 84 72 48z m-1052 -44 c18 -16 39 -30 45 -30 7 0 29
14 50 30 29 23 40 27 47 18 15 -25 8 -49 -32 -103 -55 -75 -73 -74 -128 7 -32
47 -37 64 -26 92 8 20 5 21 44 -14z m2069 -302 c0 -62 -6 -127 -12 -145 -25
-66 -73 -119 -137 -152 l-63 -31 -194 0 -193 0 0 90 c0 130 -3 133 -170 128
-89 -2 -133 -7 -142 -16 -11 -11 -14 -36 -18 -195 0 -5 -91 -7 -202 -5 -225 3
-248 9 -317 79 -59 58 -75 103 -79 221 -2 59 -2 115 2 123 5 13 97 15 766 15
l760 0 -1 -112z m-2002 50 c5 -7 28 -59 51 -116 l41 -103 -29 -117 c-15 -64
-38 -162 -50 -217 -12 -55 -25 -103 -29 -107 -8 -9 -107 419 -103 446 3 25 72
197 84 214 6 6 14 12 18 12 4 0 12 -6 17 -12z m1291 -417 c2 -123 0 -146 -14
-162 -22 -25 -49 -24 -74 1 -18 18 -20 33 -20 166 l0 145 53 -3 52 -3 3 -144z
m-690 -39 c55 -26 64 -27 263 -30 l207 -4 5 -51 c2 -29 7 -59 11 -67 4 -11
-15 -28 -67 -61 -90 -58 -102 -65 -207 -106 -80 -31 -91 -33 -212 -33 l-128 0
0 216 0 216 35 -26 c19 -15 61 -39 93 -54z m1400 -515 c3 -43 1 -48 -23 -57
-30 -11 -959 -14 -1293 -3 l-212 6 0 44 c0 36 4 45 23 53 12 5 337 8 762 7
l740 -2 3 -48z"/>
<path d="M3727 8314 c-118 -21 -214 -57 -374 -139 -164 -84 -264 -125 -379
-155 -196 -50 -224 -53 -744 -60 -550 -8 -544 -7 -695 -80 -188 -91 -329 -259
-384 -460 -16 -56 -21 -105 -21 -195 -1 -143 19 -227 83 -350 56 -109 181
-235 287 -289 123 -63 110 4 110 -576 0 -299 4 -529 10 -560 24 -128 94 -219
208 -273 l67 -32 330 0 c325 0 331 0 390 24 80 33 155 104 190 183 36 81 39
197 7 270 -25 56 -89 129 -152 170 -25 17 -51 38 -57 46 -10 12 -13 90 -13
313 0 164 3 304 6 313 8 20 30 20 163 0 241 -35 374 -81 694 -240 l209 -104
432 0 c323 0 435 3 444 12 9 9 12 79 12 256 0 156 4 251 11 264 6 12 95 61
224 125 150 73 219 112 232 131 13 19 18 48 19 97 1 39 3 75 3 80 1 6 2 102 1
213 0 143 -4 212 -12 230 -10 21 -59 50 -225 132 -117 58 -221 114 -233 124
-19 18 -20 30 -20 272 0 166 -4 255 -11 259 -5 4 -173 8 -372 10 -275 2 -381
-1 -440 -11z m562 -248 c8 -10 10 -241 9 -852 l-3 -839 -234 -3 c-181 -2 -236
1 -243 10 -4 7 -8 387 -8 844 0 632 3 833 12 842 18 18 451 17 467 -2z m-724
-1614 c-3 -3 -67 24 -143 61 -304 146 -601 217 -910 217 -94 0 -142 4 -150 12
-9 9 -12 132 -12 490 l0 478 98 0 c334 0 668 77 981 225 l136 65 3 -772 c1
-424 0 -773 -3 -776z m-1467 779 c2 -354 -1 -477 -10 -488 -19 -23 -292 -11
-378 16 -243 76 -389 339 -325 584 34 130 124 247 237 307 96 52 135 59 313
57 l160 -2 3 -474z m2692 41 c-1 -130 -9 -183 -38 -221 -17 -24 -112 -79 -174
-100 l-28 -10 0 285 0 284 120 -60 120 -60 0 -118z m-2450 -801 c6 -13 10
-156 10 -398 0 -288 3 -383 13 -395 6 -9 52 -35 100 -59 49 -24 97 -54 108
-67 35 -45 18 -122 -32 -148 -22 -11 -85 -14 -311 -14 -312 0 -321 2 -350 60
-16 32 -18 79 -18 526 0 368 3 493 12 502 9 9 75 12 235 12 210 0 223 -1 233
-19z"/>
<path d="M5149 7343 c0 -5 -1 -61 -2 -125 l-2 -118 173 0 172 0 0 125 0 125
-170 0 c-93 0 -170 -3 -171 -7z"/>
<path d="M7110 4825 l0 -665 125 0 125 0 0 665 0 665 -125 0 -125 0 0 -665z"/>
<path d="M7704 5435 c-86 -42 -144 -97 -181 -173 l-28 -57 0 -345 0 -345 33
-67 c57 -116 155 -181 298 -197 45 -6 80 -15 85 -23 5 -7 9 -54 9 -104 0 -50
3 -106 6 -123 l7 -31 -616 0 c-376 0 -626 -4 -641 -10 -14 -5 -35 -24 -46 -42
-19 -32 -20 -51 -20 -505 l0 -473 -35 -14 c-26 -11 -35 -21 -35 -38 0 -32 11
-45 43 -53 l27 -7 0 -219 c0 -210 -1 -219 -19 -219 -44 0 -66 -54 -35 -84 14
-14 109 -16 898 -16 673 0 885 3 894 12 7 7 12 25 12 40 0 22 -7 31 -35 42
l-35 15 0 211 0 211 35 15 c28 11 35 20 35 42 0 32 -16 52 -41 52 -9 0 -20 7
-23 16 -3 9 -6 227 -6 486 l0 470 -34 34 c-31 31 -39 34 -95 34 -34 0 -61 3
-61 7 0 3 59 63 130 133 84 82 140 130 158 133 15 3 81 3 147 0 66 -3 172 0
237 5 101 9 124 14 177 42 71 38 119 87 158 162 l28 53 0 350 0 350 -28 57
c-38 77 -96 134 -175 171 l-67 32 -545 3 -545 2 -71 -35z m1184 -84 c68 -31
128 -98 148 -167 12 -44 15 -106 12 -351 -3 -285 -4 -300 -25 -339 -30 -56
-79 -103 -133 -128 -41 -19 -69 -21 -300 -26 -170 -3 -262 -9 -275 -17 -11 -6
-81 -73 -155 -147 -74 -75 -138 -136 -141 -136 -3 0 -6 12 -7 28 -2 209 0 200
-30 233 -26 30 -35 32 -113 39 -135 11 -217 60 -263 160 -20 42 -21 66 -24
338 -4 332 1 367 64 440 48 57 104 84 189 93 39 3 279 6 535 5 l465 -2 53 -23z
m-700 -1483 c8 -8 12 -48 12 -113 0 -65 -4 -105 -12 -113 -18 -18 -1461 -17
-1475 1 -11 14 -10 207 1 225 11 17 1457 17 1474 0z m-1375 -340 c16 -12 17
-39 15 -303 l-3 -290 -53 -3 c-48 -3 -53 -1 -62 23 -15 40 -13 558 2 573 16
16 80 15 101 0z m1378 -9 c5 -8 8 -142 6 -299 l-2 -285 -48 -3 c-27 -2 -55 2
-63 9 -19 16 -21 584 -1 593 21 10 99 -1 108 -15z m-889 -23 c-57 -65 -66
-158 -22 -233 l19 -33 -47 -12 c-71 -18 -136 -87 -152 -162 -6 -32 -10 -66 -7
-76 10 -38 -10 -50 -82 -50 -43 0 -72 5 -78 13 -5 7 -7 132 -5 300 l4 287 200
0 200 0 -30 -34z m676 -246 c1 -151 0 -285 -3 -297 -5 -21 -11 -23 -80 -23
-48 0 -76 4 -82 13 -4 6 -8 39 -8 72 -1 33 -9 74 -18 91 -24 47 -77 93 -122
106 -56 16 -57 19 -35 63 37 73 21 169 -40 233 l-21 22 203 -2 203 -3 3 -275z
m-472 201 c37 -22 59 -70 50 -107 -11 -44 -59 -84 -101 -84 -107 0 -151 136
-61 191 39 24 73 24 112 0z m148 -340 c15 -10 37 -32 47 -47 19 -30 25 -99 11
-122 -7 -9 -66 -12 -263 -10 l-254 3 -3 49 c-4 62 13 103 52 127 27 17 52 19
206 19 155 0 178 -2 204 -19z m-224 -287 c0 -10 -391 -422 -407 -428 -8 -3
-81 -6 -163 -6 -111 0 -149 3 -153 13 -7 20 -9 372 -1 401 l6 26 359 0 c197 0
359 -3 359 -6z m768 -212 c2 -164 0 -214 -10 -217 -7 -3 -241 -4 -520 -3
l-507 3 190 205 c105 113 198 211 207 218 12 9 88 12 327 10 l310 -3 3 -213z"/>
<path d="M8216 5083 c-16 -2 -40 -12 -53 -20 -47 -31 -53 -60 -53 -238 l0
-165 34 -37 c32 -35 38 -37 104 -41 83 -5 134 15 160 62 14 26 17 59 17 191 0
173 -6 196 -58 229 -24 16 -106 27 -151 19z m102 -105 c14 -14 17 -265 3 -287
-10 -16 -89 -17 -104 -2 -10 10 -13 273 -3 289 9 16 89 15 104 0z"/>
<path d="M8530 5077 l-25 -13 -3 -226 c-2 -196 0 -228 14 -242 12 -12 37 -16
106 -16 104 0 151 17 174 62 19 37 23 184 6 216 -9 16 -10 28 -2 41 5 11 10
40 10 65 0 58 -37 103 -95 116 -57 14 -156 12 -185 -3z m179 -105 c17 -31 -1
-43 -60 -40 -55 3 -56 4 -50 48 0 6 23 10 51 10 37 0 52 -4 59 -18z m5 -173
c11 -32 0 -93 -20 -114 -16 -16 -61 -20 -81 -7 -6 4 -12 34 -13 67 -3 91 -6
86 52 83 46 -3 54 -6 62 -29z"/>
<path d="M7946 5064 c-3 -9 -6 -91 -6 -183 0 -193 -4 -204 -65 -199 -33 2 -42
8 -54 33 -22 48 -55 59 -85 29 -34 -33 -9 -110 47 -144 40 -25 135 -27 182 -4
65 30 70 48 73 256 2 124 0 193 -8 207 -13 26 -75 30 -84 5z"/>
<path d="M1992 4887 c-9 -11 -12 -87 -10 -296 l3 -283 108 1 c59 0 112 0 117
1 6 0 10 98 10 273 0 329 8 310 -129 315 -67 3 -90 1 -99 -11z"/>
<path d="M440 2432 l0 -1738 773 -128 c424 -70 784 -130 800 -133 l27 -5 0
131 0 131 260 0 c246 0 260 1 270 19 7 13 10 424 10 1260 l0 1241 310 0 c240
0 310 -3 310 -12 0 -7 -71 -84 -157 -170 l-158 -158 93 -92 92 -93 325 325
c179 179 324 328 322 333 -3 10 -640 647 -647 647 -8 0 -180 -169 -180 -178 0
-4 72 -79 160 -167 88 -88 160 -163 160 -167 0 -5 -142 -8 -315 -8 l-315 0 -2
348 -3 347 -1067 3 -1068 2 0 -1738z m1330 -2 c7 -4 10 -53 8 -136 l-3 -129
-130 0 -130 0 -3 129 c-2 91 1 132 9 137 15 9 234 8 249 -1z"/>
<path d="M3789 2806 c-126 -35 -238 -130 -295 -250 -30 -63 -37 -90 -42 -168
l-7 -93 -300 -5 -300 -5 -3 -786 c-2 -654 0 -788 12 -798 10 -8 294 -10 1067
-9 l1054 3 3 798 2 797 -300 0 -300 0 0 49 c0 213 -134 401 -331 462 -70 22
-189 24 -260 5z m221 -279 c59 -30 91 -86 98 -173 l5 -64 -202 0 -201 0 0 43
c0 65 18 115 56 157 64 71 151 84 244 37z m-500 -1032 c0 -83 -4 -135 -10
-136 -5 0 -62 0 -125 0 -63 0 -119 0 -125 0 -6 1 -10 53 -10 136 l0 135 135 0
135 0 0 -135z m1070 -5 l0 -130 -129 0 c-108 0 -130 3 -135 16 -3 9 -6 67 -6
130 l0 114 135 0 135 0 0 -130z"/>
<path d="M4570 2695 l0 -125 545 0 545 0 0 125 0 125 -545 0 -545 0 0 -125z"/>
<path d="M7973 2259 c-57 -10 -111 -40 -154 -86 -56 -58 -73 -99 -74 -173 0
-77 22 -142 71 -205 18 -24 30 -46 26 -48 -4 -2 -28 -5 -54 -6 -26 0 -59 -6
-74 -11 -22 -9 -36 -6 -73 11 -64 30 -159 30 -227 0 -41 -18 -56 -20 -78 -11
-15 5 -50 10 -77 10 -28 0 -49 5 -49 11 0 5 14 27 30 48 75 93 90 209 39 310
-53 106 -147 158 -271 149 -77 -5 -130 -30 -185 -85 -100 -103 -98 -282 5
-392 18 -18 32 -34 32 -36 0 -1 -42 -5 -94 -9 -75 -5 -101 -3 -132 10 -51 22
-157 22 -207 0 -61 -25 -110 -70 -143 -128 -25 -46 -29 -63 -29 -133 0 -88 21
-142 76 -201 l29 -30 -77 -12 c-91 -15 -145 -43 -202 -108 -55 -62 -71 -121
-71 -256 0 -115 12 -158 49 -178 13 -6 179 -10 465 -10 405 0 447 2 475 18 30
16 32 16 62 0 28 -16 70 -18 469 -18 394 0 441 2 468 17 28 16 31 16 55 0 24
-15 70 -17 481 -17 l455 0 24 33 c34 45 36 61 27 195 -6 104 -11 126 -36 171
-48 90 -135 143 -251 156 l-63 7 39 45 c102 116 92 303 -21 398 -79 67 -196
85 -298 46 -39 -15 -58 -17 -83 -10 -17 5 -50 9 -73 9 -22 0 -43 3 -47 6 -3 3
9 27 28 52 50 71 66 119 66 194 0 171 -155 297 -328 267z m-866 -108 c50 -23
99 -86 108 -140 14 -87 -51 -188 -136 -211 -177 -48 -309 161 -191 302 54 64
142 83 219 49z m988 0 c74 -34 115 -95 115 -172 0 -95 -93 -189 -188 -189 -50
0 -130 48 -157 94 -92 157 68 342 230 267z m-1492 -495 c70 -29 126 -129 113
-200 -11 -56 -49 -110 -96 -135 -176 -98 -356 115 -234 277 49 64 143 89 217
58z m1004 -5 c83 -38 123 -145 89 -236 -49 -126 -201 -160 -297 -64 -148 148
18 386 208 300z m1018 -15 c99 -76 110 -201 25 -286 -72 -72 -173 -73 -249 -4
-51 45 -64 81 -59 153 5 69 37 119 96 151 54 30 138 23 187 -14z m-1357 -48
c-38 -123 -20 -217 59 -299 l34 -36 -63 -7 c-108 -11 -205 -71 -265 -165 -1
-2 -27 24 -57 57 -64 68 -121 97 -214 108 l-62 7 36 40 c75 83 95 190 56 295
-14 36 -16 52 -8 56 6 2 122 5 257 5 l247 1 -20 -62z m991 -3 c-37 -105 -18
-209 51 -288 l39 -44 -52 -6 c-98 -12 -147 -36 -213 -102 l-61 -62 -46 52
c-55 63 -112 93 -206 109 l-69 11 34 39 c40 47 74 132 74 187 0 22 -9 65 -20
96 -11 32 -20 59 -20 60 0 2 114 3 254 3 l254 0 -19 -55z m-1407 -468 c72 -42
101 -99 106 -207 4 -71 1 -89 -13 -103 -15 -15 -55 -17 -425 -17 -458 0 -420
-7 -420 79 0 149 52 238 158 272 15 4 144 7 287 6 l260 -2 47 -28z m1000 1
c64 -38 98 -108 105 -215 9 -122 45 -113 -443 -113 l-414 0 0 88 c0 107 12
152 52 198 62 70 78 73 393 71 l260 -2 47 -27z m953 21 c53 -15 120 -82 133
-134 6 -22 13 -72 16 -110 11 -118 48 -109 -435 -106 -227 1 -418 5 -423 8 -4
3 -6 49 -4 102 7 143 54 216 154 240 57 13 510 13 559 0z"/>
</g>
</svg>
