<?xml version="1.0" standalone="no"?>
<!DOCTYPE svg PUBLIC "-//W3C//DTD SVG 20010904//EN"
 "http://www.w3.org/TR/2001/REC-SVG-20010904/DTD/svg10.dtd">
<svg version="1.0" xmlns="http://www.w3.org/2000/svg"
 width="922.000000pt" height="949.000000pt" viewBox="0 0 922.000000 949.000000"
 preserveAspectRatio="xMidYMid meet">

<g transform="translate(0.000000,949.000000) scale(0.100000,-0.100000)"
fill="#000000" stroke="none">
<path d="M1542 8690 c-12 -5 -27 -21 -32 -35 -6 -17 -10 -443 -10 -1171 l0
-1144 -21 -21 c-20 -20 -29 -21 -183 -18 -88 2 -232 3 -318 1 -143 -2 -160 -4
-178 -22 -20 -20 -20 -29 -18 -2498 l3 -2477 28 -56 c30 -62 112 -146 173
-177 22 -11 66 -25 99 -32 89 -16 6340 -10 6375 7 20 10 -286 12 -1435 12
-1664 0 -1507 -8 -1723 90 l-111 51 -1377 0 -1376 0 4 23 c3 12 39 175 81 362
42 187 115 529 162 760 128 632 137 669 148 649 7 -12 7 -19 -1 -22 -8 -2 -8
-9 1 -23 8 -13 9 -22 2 -27 -16 -11 -19 -46 -3 -36 10 6 10 4 -1 -9 -11 -14
-11 -17 0 -17 10 0 10 -3 1 -12 -7 -7 -11 -23 -11 -38 1 -24 2 -24 9 5 8 29 8
29 7 -7 -1 -20 -5 -34 -9 -32 -4 3 -8 0 -8 -5 0 -6 4 -11 9 -11 6 0 6 -12 1
-31 -12 -42 -11 -549 1 -549 5 0 9 6 9 14 0 8 4 17 9 20 5 4 7 -4 3 -16 -3
-14 -2 -19 6 -14 7 4 12 1 12 -7 0 -10 -7 -14 -22 -11 l-23 5 23 -12 c12 -7
22 -17 23 -23 0 -6 4 -2 9 9 8 17 8 17 7 -7 -1 -23 -4 -25 -17 -15 -8 7 -18
16 -22 22 -4 5 -10 6 -14 2 -4 -3 -2 -13 4 -20 7 -8 9 -17 5 -21 -4 -4 0 -4
10 0 14 5 16 2 10 -12 -6 -17 -5 -18 13 -4 19 14 19 14 0 -8 -11 -12 -17 -22
-15 -23 2 0 11 -2 19 -4 13 -2 16 14 18 91 2 52 0 94 -5 94 -10 0 -9 58 2 68
5 4 5 1 1 -5 -4 -7 -2 -13 3 -13 6 0 11 9 11 21 0 11 -4 18 -9 15 -5 -3 -11 1
-14 9 -4 10 -1 12 10 8 11 -4 14 -2 9 5 -4 7 -2 12 3 12 18 0 13 30 -6 37 -15
6 -14 7 3 13 12 5 20 18 21 36 3 33 3 29 2 109 0 33 0 85 0 115 1 30 0 225 -1
433 -2 207 0 377 4 377 3 0 4 9 1 20 -3 12 0 20 6 20 7 0 9 5 6 11 -11 17 4
61 18 52 8 -4 8 -1 -1 10 -8 9 -10 21 -6 28 4 7 8 28 10 48 2 20 8 37 14 39 5
2 8 8 5 12 -3 5 17 120 45 255 27 136 50 249 50 251 0 2 8 4 18 5 10 0 12 3 5
6 -15 6 -17 33 -3 33 5 0 9 -6 7 -12 -1 -7 5 -12 13 -10 10 1 7 -4 -7 -17 -12
-10 -19 -21 -16 -25 4 -3 1 -6 -5 -6 -7 0 -12 -4 -12 -9 0 -5 9 -7 20 -4 11 3
17 9 14 14 -3 5 2 9 10 9 8 0 18 -5 21 -10 4 -6 3 -10 -2 -9 -20 3 -25 -2 -14
-15 8 -10 9 -16 1 -21 -6 -4 -9 -1 -8 7 2 7 -6 13 -17 13 -15 0 -21 -8 -23
-33 -2 -19 0 -41 4 -50 4 -10 6 -25 5 -36 -2 -10 2 -15 7 -12 6 4 14 1 18 -5
4 -8 3 -9 -4 -5 -8 5 -12 -1 -12 -14 0 -12 5 -18 10 -15 11 7 9 -23 -3 -41 -4
-7 1 -18 11 -25 15 -12 16 -12 5 2 -13 16 -8 29 9 29 5 0 6 -4 3 -10 -3 -5 6
-12 20 -16 13 -3 22 -10 19 -15 -3 -5 2 -9 11 -9 13 0 14 -4 5 -22 l-11 -23
18 21 c10 12 26 24 36 28 13 4 16 12 12 26 -4 11 -2 20 4 20 6 0 11 5 11 11 0
5 -5 7 -11 3 -9 -5 -10 1 -5 20 5 19 3 26 -6 25 -19 -3 -49 12 -43 21 3 5 1
11 -5 15 -16 10 -12 -31 5 -45 8 -7 22 -10 30 -6 9 3 13 2 10 -4 -10 -16 -25
-12 -57 15 -16 14 -24 25 -18 25 6 0 8 5 5 10 -4 6 -11 7 -17 4 -6 -4 -8 -2
-5 3 8 13 -17 36 -28 25 -5 -4 -5 -1 -1 6 6 11 11 11 24 0 10 -7 20 -17 23
-22 15 -19 29 8 29 55 0 28 -4 48 -9 45 -4 -3 -6 -17 -3 -31 2 -14 0 -25 -6
-25 -5 0 -12 13 -14 29 -2 17 -2 28 1 27 10 -6 26 17 29 42 2 12 -2 22 -7 22
-6 0 -11 5 -11 11 0 5 5 7 10 4 6 -3 10 -2 10 4 0 5 -6 11 -12 14 -9 3 -6 11
8 25 12 12 24 26 26 32 2 6 30 11 62 13 40 1 61 7 64 16 3 8 0 11 -5 8 -5 -3
-10 0 -10 8 0 8 7 17 15 20 8 3 12 12 8 20 -3 8 -1 17 4 20 13 8 13 35 -1 35
-5 0 -7 -6 -3 -12 6 -10 4 -10 -7 -2 -8 6 -30 11 -49 12 l-35 2 29 -15 c15 -8
32 -12 37 -9 5 3 9 0 9 -5 0 -14 -43 -14 -57 0 -6 6 -17 8 -23 4 -9 -6 -9 -10
1 -16 11 -7 10 -9 -5 -9 -12 0 -16 5 -12 16 3 9 3 20 0 25 -9 16 -33 -10 -28
-29 3 -9 -1 -7 -8 6 -14 23 -31 21 -21 -4 3 -9 -2 -12 -16 -9 -11 2 -24 -1
-27 -7 -4 -6 -2 -8 4 -4 6 3 14 1 18 -5 4 -7 3 -9 -3 -6 -6 4 -16 0 -22 -7 -8
-10 -9 -16 -1 -21 5 -3 10 -3 10 1 0 4 8 0 18 -9 10 -10 22 -14 27 -10 4 5 5
3 2 -4 -4 -6 -2 -14 3 -16 6 -3 5 -4 -2 -3 -7 2 -18 -3 -23 -11 -8 -11 -13
-10 -27 7 -12 13 -14 20 -5 20 7 0 4 7 -7 15 -15 11 -16 17 -8 28 7 8 10 16 7
19 -3 3 14 99 38 213 34 159 49 211 63 222 16 12 136 13 731 11 459 -2 716 -7
722 -13 7 -7 -5 -9 -34 -7 l-45 4 0 -40 c0 -45 19 -69 40 -49 10 9 11 9 6 0
-5 -9 1 -13 16 -14 16 -1 13 -4 -12 -9 -32 -7 -33 -8 -13 -15 13 -4 20 -12 16
-19 -3 -6 -3 -8 2 -4 4 4 14 3 21 -3 21 -17 27 11 22 96 l-5 75 46 0 c53 0
107 -24 133 -61 11 -14 25 -62 33 -107 25 -142 67 -209 166 -262 l64 -35 833
-3 c469 -1 832 -6 832 -11 0 -5 9 -7 19 -4 10 3 30 -1 42 -8 13 -7 28 -12 32
-11 5 1 6 -2 2 -8 -3 -6 -10 -8 -14 -5 -5 2 -6 -14 -4 -38 3 -23 9 -44 14 -45
14 -6 0 -22 -19 -22 -15 0 -15 2 -2 10 12 8 12 10 -5 10 -17 0 -17 2 -5 10 10
6 11 10 3 10 -7 0 -13 7 -13 15 0 8 6 15 13 15 8 0 7 4 -3 10 -10 7 -11 10 -2
10 10 0 10 4 0 20 -15 24 -50 23 -54 -2 -1 -10 1 -17 4 -17 25 4 31 -2 23 -23
-4 -13 -6 -29 -4 -35 3 -7 0 -13 -5 -13 -6 0 -9 11 -7 25 1 14 -2 28 -6 31 -5
3 -9 -15 -9 -40 l0 -46 55 0 c51 0 55 2 55 23 0 13 -6 29 -12 36 -11 11 -10
12 2 6 13 -8 13 -7 0 10 -17 21 -17 25 1 36 10 6 10 11 -2 25 -9 11 -9 15 -1
10 6 -4 12 -2 12 3 0 7 33 11 88 11 82 0 90 -2 101 -22 6 -13 9 -15 7 -5 -3 9
-1 17 4 17 6 0 10 -8 11 -17 3 -47 1 -73 -7 -90 -6 -14 -9 -8 -14 27 l-7 45
-1 -47 c-2 -33 2 -48 11 -48 8 0 7 -4 -3 -10 -11 -7 -1 -10 36 -10 l51 0 -1
59 c0 37 -4 57 -11 55 -6 -3 -10 -24 -10 -48 1 -25 -3 -43 -10 -43 -14 0 -18
44 -5 52 5 3 7 12 4 19 -3 8 -1 17 5 21 19 11 12 23 -11 19 -21 -4 -21 -4 -3
5 12 5 25 5 31 0 8 -6 14 -4 18 6 4 11 22 15 73 15 64 0 69 -2 80 -27 10 -21
10 -28 0 -35 -9 -6 -9 -8 1 -8 7 0 12 -14 12 -34 0 -19 5 -37 10 -39 6 -3 5
-4 -2 -3 -7 1 -15 13 -19 27 -6 21 -7 21 -8 -8 l-1 -33 56 0 55 0 -2 68 c0 37
-1 73 0 80 1 9 180 12 861 12 791 0 860 -1 868 -17 6 -10 6 -28 0 -47 -5 -17
-40 -184 -78 -371 -59 -293 -132 -648 -209 -1019 -12 -54 -21 -102 -21 -107 0
-5 38 -9 84 -9 l83 0 13 63 c6 34 81 392 166 795 85 404 154 754 154 778 0 66
-27 89 -116 99 -38 4 -278 6 -534 5 -256 -2 -473 -2 -482 -2 -9 1 -24 9 -32
18 -14 14 -16 105 -16 850 l0 835 -25 24 c-24 24 -28 25 -197 27 -95 1 -239 0
-319 -2 -125 -2 -147 0 -162 15 -9 9 -18 24 -18 33 -1 9 -2 531 -3 1159 -1
1082 -2 1143 -19 1160 -17 17 -129 18 -2450 20 -1448 1 -2441 -2 -2455 -7z
m4746 -163 c7 -7 15 -36 19 -64 l6 -51 -54 14 c-46 12 -382 14 -2149 12
l-2095 -3 -41 -22 c-59 -31 -121 -106 -139 -166 -13 -44 -15 -324 -15 -2196 0
-1180 3 -2155 5 -2166 7 -24 -115 -645 -143 -730 -20 -60 -20 -59 -21 2648 -1
2566 0 2708 17 2725 16 16 137 17 2307 14 1858 -2 2292 -5 2303 -15z m-561
-253 c15 -12 37 -36 48 -55 20 -34 20 -54 23 -1851 l2 -1818 -785 0 c-547 0
-800 3 -831 11 -69 18 -124 95 -124 175 0 11 -10 49 -21 85 -35 104 -131 185
-244 204 -22 3 -52 9 -67 11 l-28 6 0 1609 c0 1099 3 1617 10 1630 11 19 28
19 1000 17 987 -3 989 -3 1017 -24z m303 1 c12 -11 29 -33 39 -50 15 -28 16
-182 19 -1852 l2 -1823 -90 0 -90 0 -2 1823 c-3 1708 -4 1825 -20 1866 -10 24
-18 48 -18 53 0 6 28 9 69 6 51 -3 75 -9 91 -23z m256 -6 l24 -23 -2 -1834
c-3 -1802 -3 -1834 -22 -1848 -11 -8 -35 -14 -53 -14 l-33 0 -2 1833 c-2 1470
-6 1838 -16 1861 -7 16 -10 36 -7 44 8 22 81 9 111 -19z m-3031 -304 l25 -24
0 -627 0 -628 -37 45 c-57 68 -112 117 -177 160 l-60 39 -27 -43 c-76 -123
-201 -174 -330 -136 -44 13 -136 94 -170 148 l-16 25 -45 -27 c-57 -33 -143
-111 -183 -166 -16 -22 -34 -41 -38 -41 -4 0 -6 281 -5 624 l3 624 24 26 24
26 494 0 494 0 24 -25z m-1771 -1834 c15 -17 16 -154 13 -1967 l-3 -1949 -27
-115 c-15 -63 -52 -234 -82 -380 -88 -429 -98 -460 -169 -494 -89 -42 -202 -5
-246 79 l-25 49 -3 2384 c-2 1777 1 2388 9 2398 9 11 62 14 264 14 233 0 253
-1 269 -19z m5530 3 c14 -14 16 -99 16 -784 l0 -770 -23 -14 c-18 -13 -67 -15
-265 -15 -223 0 -245 2 -262 19 -18 18 -18 53 -19 776 0 656 2 762 15 781 14
23 15 23 269 23 217 0 256 -2 269 -16z m-3643 -363 c28 -23 32 -83 6 -109 -17
-16 -62 -17 -637 -16 -584 1 -621 2 -640 19 -25 22 -26 66 -2 94 21 25 31 26
743 29 482 2 508 1 530 -17z m0 -350 c32 -26 32 -86 0 -113 -23 -18 -48 -18
-638 -16 l-615 3 -19 24 c-27 34 -24 75 7 100 26 21 35 21 634 21 579 0 609
-1 631 -19z m-323 -347 c12 -8 22 -19 22 -25 0 -5 -181 -9 -467 -9 -387 0
-473 -3 -495 -14 -34 -18 -39 -1 -10 33 21 26 35 26 542 29 335 2 388 0 408
-14z m639 -316 c-3 -8 -6 -5 -6 6 -1 11 2 17 5 13 3 -3 4 -12 1 -19z m2735
-405 c-6 -2 -10 -9 -6 -14 3 -5 -2 -12 -11 -15 -9 -4 -13 -13 -11 -23 3 -9 2
-22 -3 -29 -5 -8 -8 0 -9 22 -1 35 19 67 41 65 8 0 8 -2 -1 -6z m-4300 -31
c-7 -2 -9 -9 -5 -15 3 -7 2 -8 -2 -4 -16 14 -14 36 3 29 10 -4 12 -7 4 -10z
m44 -43 c0 -10 -4 -19 -8 -19 -4 0 -8 8 -8 17 0 15 -2 14 -16 -3 -15 -18 -15
-18 -5 2 6 12 8 24 5 27 -3 3 3 3 13 1 10 -3 19 -14 19 -25z m-11 -269 c-3 -5
-1 -11 4 -15 6 -3 7 -13 4 -21 -5 -15 -7 -15 -15 0 -5 9 -13 14 -19 11 -5 -4
-5 3 0 18 6 14 7 29 3 33 -4 5 1 2 10 -5 10 -7 16 -17 13 -21z m60 -49 c3 -5
1 -12 -5 -16 -6 -4 -7 -11 -4 -17 4 -7 2 -8 -5 -4 -9 6 -9 11 -1 21 8 10 7 14
-2 18 -9 4 -9 6 -1 6 6 1 14 -3 18 -8z m-298 -553 c-3 -8 -6 -5 -6 6 -1 11 2
17 5 13 3 -3 4 -12 1 -19z m-1 -96 c0 -40 -3 -48 -19 -49 -19 -2 -19 -2 -1 13
18 14 18 14 -1 8 -16 -5 -17 -4 -5 5 8 6 11 11 6 11 -6 0 -5 5 2 12 14 14 16
32 2 23 -6 -3 -7 1 -4 9 11 30 20 16 20 -32z m-19 -69 c-4 -3 0 -14 9 -24 12
-13 13 -22 5 -36 -10 -17 -10 -17 -11 0 0 11 -4 15 -12 11 -6 -4 -8 -3 -4 4 3
6 2 13 -3 17 -12 7 -3 35 12 35 6 0 7 -3 4 -7z m-15 -72 c8 11 9 10 4 -3 -3
-11 0 -18 7 -18 9 0 8 -3 -1 -9 -17 -10 -17 -21 -2 -31 9 -5 9 -9 1 -14 -6 -4
-11 -2 -11 4 0 7 -7 4 -16 -5 -9 -9 -19 -14 -22 -11 -2 3 6 15 19 27 17 15 19
19 7 15 -12 -3 -18 0 -18 9 0 9 6 12 18 8 14 -5 15 -3 5 8 -7 7 -12 22 -12 34
1 17 2 16 6 -4 4 -19 7 -21 15 -10z m34 -111 c0 -12 -4 -16 -9 -11 -5 5 -6 14
-3 20 10 15 12 14 12 -9z m-59 -16 c-3 -3 -12 -4 -19 -1 -8 3 -5 6 6 6 11 1
17 -2 13 -5z m20 -631 c-4 -3 -2 -12 4 -19 8 -9 5 -11 -10 -7 -12 3 -19 9 -16
13 3 5 -1 11 -7 13 -7 3 -2 6 11 6 13 1 21 -2 18 -6z m3 -47 c0 -11 -19 -15
-25 -6 -3 5 1 10 9 10 9 0 16 -2 16 -4z m-8 -43 c-6 -2 -10 -9 -7 -14 4 -5 -1
-6 -10 -2 -13 5 -14 7 -3 14 7 5 18 8 23 8 6 0 4 -3 -3 -6z m8 -57 c0 -16 -13
-30 -30 -34 -11 -3 -11 0 3 15 13 15 14 22 4 32 -9 10 -8 11 6 6 9 -4 17 -12
17 -19z"/>
<path d="M2980 7925 c-16 -9 -56 -14 -110 -15 -47 0 -110 -6 -141 -14 -66 -15
-144 -58 -159 -86 -8 -15 -21 -20 -53 -20 -59 0 -107 -27 -131 -75 -18 -34
-21 -57 -20 -150 1 -169 6 -255 15 -249 5 2 16 -21 25 -53 9 -32 20 -62 25
-67 8 -9 10 -3 29 104 20 109 76 230 107 230 7 0 22 -11 35 -24 32 -34 89 -66
116 -66 31 0 91 32 121 64 l25 26 27 -29 c15 -17 40 -33 56 -36 15 -4 33 -8
39 -10 7 -2 15 -32 19 -67 7 -73 24 -177 31 -197 8 -23 31 6 54 67 14 37 24
93 28 166 7 105 8 111 32 123 41 20 60 51 60 98 0 51 -28 91 -70 100 -17 4
-30 8 -30 11 0 2 9 18 20 36 28 47 26 84 -9 119 -24 23 -38 29 -73 29 -24 -1
-54 -7 -68 -15z"/>
<path d="M2527 7323 c-4 -3 -7 -12 -7 -20 0 -9 18 -13 68 -13 74 0 88 5 71 27
-12 13 -120 19 -132 6z"/>
<path d="M2811 7321 c-28 -18 1 -31 70 -31 52 0 69 3 69 14 0 8 -7 17 -16 20
-23 9 -107 7 -123 -3z"/>
<path d="M2577 7243 c-14 -13 -7 -61 10 -67 25 -10 47 17 39 48 -6 25 -33 35
-49 19z"/>
<path d="M2850 7230 c-8 -14 -8 -26 0 -40 21 -40 67 -11 56 35 -8 31 -41 34
-56 5z"/>
<path d="M3047 7093 c-4 -3 -7 -11 -7 -17 0 -6 5 -5 12 2 6 6 9 14 7 17 -3 3
-9 2 -12 -2z"/>
<path d="M3600 4727 c0 -15 4 -27 8 -27 10 0 9 36 -1 46 -4 4 -7 -5 -7 -19z"/>
<path d="M2145 4350 c6 -29 11 -34 18 -16 3 8 0 20 -8 26 -12 10 -13 8 -10
-10z"/>
<path d="M2105 3910 c-3 -6 1 -7 9 -4 18 7 21 14 7 14 -6 0 -13 -4 -16 -10z"/>
<path d="M2226 3897 c3 -10 9 -15 12 -12 3 3 0 11 -7 18 -10 9 -11 8 -5 -6z"/>
<path d="M2213 3845 c0 -8 4 -12 9 -9 5 3 6 10 3 15 -9 13 -12 11 -12 -6z"/>
<path d="M2196 3743 c-6 -14 -5 -15 5 -6 7 7 10 15 7 18 -3 3 -9 -2 -12 -12z"/>
<path d="M2186 3707 c3 -10 9 -15 12 -12 3 3 0 11 -7 18 -10 9 -11 8 -5 -6z"/>
<path d="M1989 3695 c-1 -3 -2 -8 -3 -12 -1 -5 -5 -15 -10 -23 -7 -12 -6 -13
4 -3 13 12 23 43 14 43 -2 0 -5 -2 -5 -5z"/>
<path d="M2175 3661 c-3 -6 -11 -9 -16 -5 -5 3 -8 1 -7 -4 5 -14 -44 -72 -60
-72 -13 0 -12 -3 4 -15 10 -8 13 -14 6 -13 -10 2 -15 -13 -19 -52 -2 -30 -8
-73 -13 -95 -5 -23 -5 -42 0 -45 5 -3 11 -32 13 -63 3 -32 8 -61 12 -65 4 -4
6 -2 4 3 -1 6 1 18 6 29 5 11 3 21 -4 26 -9 5 -8 9 4 14 11 4 15 12 11 22 -4
9 -1 23 5 30 6 8 9 25 7 39 -3 13 -1 22 3 19 5 -3 10 5 11 18 1 13 2 30 3 38
0 8 4 21 9 28 4 7 2 19 -5 28 -10 12 -10 15 2 12 9 -2 15 6 16 22 4 38 9 63
18 83 8 20 1 34 -10 18z m-31 -97 c3 -8 2 -12 -4 -9 -6 3 -10 10 -10 16 0 14
7 11 14 -7z m-44 -168 c0 -2 -8 -10 -17 -17 -16 -13 -17 -12 -4 4 13 16 21 21
21 13z"/>
<path d="M2101 3646 c-9 -10 -8 -15 2 -19 8 -3 13 3 13 14 0 23 0 23 -15 5z"/>
<path d="M2025 2991 c-6 -11 9 -23 19 -14 9 9 7 23 -3 23 -6 0 -12 -4 -16 -9z"/>
<path d="M2010 2890 c-9 -6 -10 -10 -3 -10 6 0 15 5 18 10 8 12 4 12 -15 0z"/>
<path d="M1976 2717 c3 -10 9 -15 12 -12 3 3 0 11 -7 18 -10 9 -11 8 -5 -6z"/>
<path d="M1955 2620 c-3 -5 -1 -10 4 -10 6 0 11 5 11 10 0 6 -2 10 -4 10 -3 0
-8 -4 -11 -10z"/>
<path d="M1945 2570 c3 -5 8 -10 11 -10 2 0 4 5 4 10 0 6 -5 10 -11 10 -5 0
-7 -4 -4 -10z"/>
<path d="M7777 2390 c-4 -25 -12 -62 -18 -82 l-10 -38 -374 0 -375 0 0 -412 0
-411 727 6 c561 6 729 10 735 20 4 6 5 183 2 392 -6 329 -8 382 -22 393 -12 9
-94 12 -334 12 l-317 0 -3 83 c-3 76 -4 78 -11 37z"/>
<path d="M4685 2271 l-70 -6 -3 -200 -2 -201 -30 -11 c-20 -8 -30 -8 -30 -1 0
6 -9 -1 -20 -15 -18 -22 -20 -40 -20 -147 0 -67 5 -130 10 -140 7 -13 7 -21 0
-25 -15 -9 -12 -41 6 -56 13 -10 17 -10 25 2 7 11 9 11 9 -3 0 -10 7 -18 15
-18 8 0 15 5 15 11 0 8 4 8 13 1 6 -5 65 -9 132 -8 l120 1 0 402 c0 221 -3
404 -5 406 -10 10 -97 14 -165 8z m-78 -440 c-1 -19 -20 -22 -34 -6 -4 4 -2 5
5 1 7 -4 15 -1 18 8 8 21 13 20 11 -3z m-52 -11 c3 -5 1 -10 -4 -10 -6 0 -11
5 -11 10 0 6 2 10 4 10 3 0 8 -4 11 -10z m-8 -282 c-3 -8 -6 -5 -6 6 -1 11 2
17 5 13 3 -3 4 -12 1 -19z m5 -25 c-6 -2 -9 -10 -6 -15 4 -7 2 -8 -4 -4 -18
11 -14 26 6 25 10 0 12 -3 4 -6z m48 -27 c0 -2 -7 -7 -16 -10 -8 -3 -12 -2 -9
4 6 10 25 14 25 6z"/>
<path d="M1880 2036 c0 -2 7 -9 15 -16 12 -10 15 -10 15 4 0 9 -7 16 -15 16
-8 0 -15 -2 -15 -4z"/>
<path d="M3656 1851 c11 -12 340 -167 479 -227 55 -23 150 -65 210 -92 61 -27
120 -53 133 -56 l22 -7 0 195 0 196 -427 0 c-269 0 -423 -4 -417 -9z"/>
<path d="M4513 1845 c0 -8 4 -12 9 -9 4 3 8 9 8 15 0 5 -4 9 -8 9 -5 0 -9 -7
-9 -15z"/>
</g>
</svg>
